<?xml version="1.0" standalone="no"?>
<!DOCTYPE svg PUBLIC "-//W3C//DTD SVG 20010904//EN"
 "http://www.w3.org/TR/2001/REC-SVG-20010904/DTD/svg10.dtd">
<svg version="1.0" xmlns="http://www.w3.org/2000/svg"
 width="645.000000pt" height="190.000000pt" viewBox="0 0 645.000000 190.000000"
 preserveAspectRatio="xMidYMid meet">

<g transform="translate(0.000000,190.000000) scale(0.100000,-0.100000)"
fill="#000000" stroke="none">
<path d="M3696 1489 c-10 -17 -46 -59 -80 -94 -56 -56 -83 -73 -311 -187 -138
-69 -259 -136 -270 -148 -17 -19 -20 -39 -23 -146 -4 -143 -1 -147 77 -94 56
38 67 40 309 43 l202 2 0 -37 c0 -66 -15 -72 -169 -64 -74 3 -210 6 -303 6
l-170 0 2 138 c1 75 1 143 1 150 -2 23 -30 12 -58 -24 -15 -19 -42 -41 -60
-49 -61 -26 -85 -105 -28 -91 25 6 25 6 25 -59 l0 -65 -80 0 -80 0 0 133 c0
185 11 327 24 326 28 -3 36 3 36 26 0 27 -35 65 -59 65 -9 0 -28 21 -43 46
-30 49 -55 65 -69 43 -5 -8 -9 -179 -9 -381 l0 -368 528 0 c482 0 530 2 562
18 57 28 70 67 70 208 0 74 -4 124 -11 131 -8 8 -28 3 -73 -17 -60 -29 -63
-29 -284 -32 -218 -3 -233 -1 -214 28 4 6 116 66 249 133 212 106 247 127 287
172 47 53 76 122 76 186 0 44 -29 45 -54 2z"/>
<path d="M526 1425 c-3 -9 -6 -181 -6 -381 l0 -364 114 0 114 0 11 -33 c14
-43 64 -103 111 -132 74 -47 219 -72 248 -43 8 8 12 47 12 111 l0 100 121 -7
c139 -8 149 -5 149 59 0 116 -83 212 -217 251 l-53 15 0 115 c0 103 -2 114
-18 114 -11 0 -29 -19 -47 -50 -16 -27 -38 -53 -50 -56 -32 -10 -65 -45 -65
-71 0 -19 5 -23 30 -23 20 0 30 -5 30 -15 0 -8 -4 -15 -10 -15 -5 0 -35 -10
-67 -21 -67 -26 -142 -92 -168 -149 -18 -39 -19 -40 -72 -40 l-53 0 0 133 c0
185 11 327 24 326 28 -3 36 3 36 26 0 26 -34 65 -59 66 -9 0 -29 21 -46 47
-32 50 -58 64 -69 37z m484 -585 l0 -50 -67 0 -67 0 35 36 c27 29 75 60 97 64
1 0 2 -22 2 -50z m216 -5 c49 -47 45 -55 -31 -55 l-65 0 0 54 0 55 31 -11 c16
-6 46 -25 65 -43z m-216 -210 l0 -54 -32 13 c-35 15 -98 70 -98 86 0 6 29 10
65 10 l65 0 0 -55z"/>
<path d="M2740 1210 c-28 -28 -25 -64 7 -90 21 -16 35 -20 58 -15 37 8 60 8
105 0 65 -12 108 50 69 98 -15 21 -29 27 -58 27 -20 0 -42 -5 -48 -11 -8 -8
-17 -8 -31 0 -32 17 -80 13 -102 -9z"/>
<path d="M5313 1142 c-34 -33 -117 -96 -147 -112 -39 -19 -76 -90 -76 -146 l0
-42 53 -4 c29 -2 64 -12 76 -20 l23 -16 -43 -23 c-32 -16 -67 -24 -127 -27
l-84 -5 2 139 c1 77 1 145 1 152 -2 23 -30 12 -58 -24 -15 -19 -42 -41 -60
-49 -61 -26 -85 -105 -28 -91 25 6 25 6 25 -59 l0 -65 -74 0 -74 0 -6 44 c-16
107 -84 152 -248 164 -95 8 -111 12 -157 41 -28 18 -69 55 -92 82 -60 72 -86
61 -73 -30 9 -61 27 -95 67 -125 61 -46 124 -68 230 -77 108 -9 136 -23 152
-76 6 -23 6 -23 -97 -23 -57 1 -147 5 -201 9 -110 10 -153 31 -184 89 -22 39
-50 42 -64 5 -24 -63 24 -146 104 -178 52 -22 435 -38 793 -33 l231 3 81 41
c45 22 82 37 82 34 0 -19 144 -71 224 -82 96 -12 100 -17 69 -83 -15 -31 -15
-38 -3 -45 25 -15 97 38 126 93 l15 27 148 0 c127 0 150 2 155 16 3 9 6 92 6
184 0 157 -1 170 -19 180 -16 8 -25 5 -47 -15 -15 -14 -45 -30 -68 -36 -193
-49 -245 -86 -280 -201 -4 -13 -16 -18 -44 -18 -50 0 -134 22 -168 45 -26 17
-27 18 -9 31 10 8 38 14 61 14 60 0 73 17 63 79 -10 66 -35 107 -73 123 -30
12 -52 29 -124 96 -19 17 -36 32 -38 32 -2 0 -11 -8 -21 -18z m49 -169 c7 -15
24 -30 38 -34 14 -4 20 -7 14 -8 -6 -1 -27 -11 -45 -24 l-34 -23 -45 28 c-35
22 -40 28 -22 28 13 0 25 8 29 18 17 48 46 55 65 15z m588 -178 l0 -55 -80 0
c-44 0 -80 4 -80 9 0 20 46 65 84 82 68 31 76 27 76 -36z"/>
<path d="M2441 1035 c-23 -25 -48 -45 -55 -45 -20 0 -56 -44 -56 -68 0 -18 6
-22 30 -22 l30 0 0 -65 0 -65 -157 0 c-179 1 -342 13 -391 31 l-33 11 29 18
c60 37 101 124 82 174 -14 38 -32 32 -62 -24 -32 -57 -76 -84 -156 -95 -29 -4
-56 -13 -59 -20 -5 -15 39 -96 62 -115 21 -18 18 -27 -10 -34 -15 -4 -25 -14
-25 -25 0 -17 22 -18 407 -24 286 -4 411 -3 420 5 19 16 19 408 0 408 -8 0
-33 -20 -56 -45z"/>
<path d="M2109 645 c-78 -42 -11 -149 72 -115 59 25 58 98 -2 119 -39 13 -38
14 -70 -4z"/>
<path d="M4827 592 c-18 -19 -22 -59 -9 -78 10 -16 48 -34 70 -34 30 0 72 38
72 66 0 56 -94 89 -133 46z"/>
</g>
</svg>
